
<svg xmlns="http://www.w3.org/2000/svg" viewBox="0 0 120 120" width="120" height="120" role="img" aria-label="HZ-Zen app icon">
  <defs>
    <linearGradient id="mono-bg" x1="0%" y1="0%" x2="100%" y2="100%">
      <stop offset="0%" stop-color="#060E1C"></stop>
      <stop offset="100%" stop-color="#17304F"></stop>
    </linearGradient>
    <linearGradient id="mono-aurora" x1="0%" y1="0%" x2="100%" y2="100%">
      <stop offset="0%" stop-color="#3DDAC5"></stop>
      <stop offset="50%" stop-color="#22D3EE"></stop>
      <stop offset="100%" stop-color="#8B5CF6"></stop>
    </linearGradient>
    <radialGradient id="mono-core" cx="50%" cy="50%" r="50%">
      <stop offset="0%" stop-color="#7DF5E4"></stop>
      <stop offset="100%" stop-color="#14B8A6"></stop>
    </radialGradient>
  </defs>

  
  <rect x="0" y="0" width="120" height="120" rx="28" fill="url(#mono-bg)"></rect>

  
  <circle cx="60" cy="60" r="40" fill="none" stroke="url(#mono-aurora)" stroke-width="3.5" stroke-linecap="round" stroke-dasharray="230 252" stroke-dashoffset="-10" transform="rotate(-18 60 60)"></circle>

  
  <g fill="url(#mono-aurora)">
    <rect x="30" y="54" width="2.5" height="12" rx="1.25"></rect>
    <rect x="36" y="48" width="2.5" height="24" rx="1.25"></rect>
    <rect x="42" y="44" width="2.5" height="32" rx="1.25"></rect>
    <rect x="48" y="50" width="2.5" height="20" rx="1.25"></rect>
  </g>
  <g fill="url(#mono-aurora)" opacity="0.85">
    <rect x="69" y="50" width="2.5" height="20" rx="1.25"></rect>
    <rect x="75" y="44" width="2.5" height="32" rx="1.25"></rect>
    <rect x="81" y="48" width="2.5" height="24" rx="1.25"></rect>
    <rect x="87" y="54" width="2.5" height="12" rx="1.25"></rect>
  </g>

  
  <circle cx="60" cy="60" r="7" fill="url(#mono-core)"></circle>
  <circle cx="60" cy="60" r="2.5" fill="#060E1C"></circle>
</svg>